<mxfile host="app.diagrams.net" agent="Mozilla/5.0 (Windows NT 10.0; Win64; x64) AppleWebKit/537.36 (KHTML, like Gecko) Chrome/131.0.0.0 Safari/537.36" version="26.0.5">
  <diagram name="Página-1" id="985LM5dcTiDRKsnAr153">
    <mxGraphModel dx="1877" dy="530" grid="1" gridSize="10" guides="1" tooltips="1" connect="1" arrows="1" fold="1" page="1" pageScale="1" pageWidth="827" pageHeight="1169" math="0" shadow="0">
      <root>
        <mxCell id="0" />
        <mxCell id="1" parent="0" />
        <mxCell id="fAwy22idsRdfTl3k40VF-2" value="Pessoa" style="whiteSpace=wrap;html=1;align=center;" vertex="1" parent="1">
          <mxGeometry x="-730" y="120" width="100" height="40" as="geometry" />
        </mxCell>
        <mxCell id="fAwy22idsRdfTl3k40VF-4" value="Banco" style="whiteSpace=wrap;html=1;align=center;" vertex="1" parent="1">
          <mxGeometry x="-500" y="80" width="100" height="40" as="geometry" />
        </mxCell>
        <mxCell id="fAwy22idsRdfTl3k40VF-5" value="Company" style="whiteSpace=wrap;html=1;align=center;" vertex="1" parent="1">
          <mxGeometry x="-250" y="120" width="100" height="40" as="geometry" />
        </mxCell>
        <mxCell id="fAwy22idsRdfTl3k40VF-13" style="edgeStyle=orthogonalEdgeStyle;rounded=0;orthogonalLoop=1;jettySize=auto;html=1;exitX=0.5;exitY=1;exitDx=0;exitDy=0;exitPerimeter=0;entryX=0.5;entryY=0;entryDx=0;entryDy=0;" edge="1" parent="1" source="fAwy22idsRdfTl3k40VF-6" target="fAwy22idsRdfTl3k40VF-11">
          <mxGeometry relative="1" as="geometry" />
        </mxCell>
        <mxCell id="fAwy22idsRdfTl3k40VF-6" value="u" style="strokeWidth=2;html=1;shape=mxgraph.flowchart.start_2;whiteSpace=wrap;" vertex="1" parent="1">
          <mxGeometry x="-475" y="230" width="50" height="50" as="geometry" />
        </mxCell>
        <mxCell id="fAwy22idsRdfTl3k40VF-8" style="edgeStyle=orthogonalEdgeStyle;rounded=0;orthogonalLoop=1;jettySize=auto;html=1;entryX=0;entryY=0.5;entryDx=0;entryDy=0;entryPerimeter=0;" edge="1" parent="1" source="fAwy22idsRdfTl3k40VF-2" target="fAwy22idsRdfTl3k40VF-6">
          <mxGeometry relative="1" as="geometry">
            <Array as="points">
              <mxPoint x="-680" y="255" />
            </Array>
          </mxGeometry>
        </mxCell>
        <mxCell id="fAwy22idsRdfTl3k40VF-9" style="edgeStyle=orthogonalEdgeStyle;rounded=0;orthogonalLoop=1;jettySize=auto;html=1;exitX=0.5;exitY=1;exitDx=0;exitDy=0;entryX=0.5;entryY=0;entryDx=0;entryDy=0;entryPerimeter=0;" edge="1" parent="1" source="fAwy22idsRdfTl3k40VF-4" target="fAwy22idsRdfTl3k40VF-6">
          <mxGeometry relative="1" as="geometry" />
        </mxCell>
        <mxCell id="fAwy22idsRdfTl3k40VF-10" style="edgeStyle=orthogonalEdgeStyle;rounded=0;orthogonalLoop=1;jettySize=auto;html=1;exitX=0.5;exitY=1;exitDx=0;exitDy=0;entryX=1;entryY=0.5;entryDx=0;entryDy=0;entryPerimeter=0;" edge="1" parent="1" source="fAwy22idsRdfTl3k40VF-5" target="fAwy22idsRdfTl3k40VF-6">
          <mxGeometry relative="1" as="geometry" />
        </mxCell>
        <mxCell id="fAwy22idsRdfTl3k40VF-11" value="Owner" style="whiteSpace=wrap;html=1;align=center;" vertex="1" parent="1">
          <mxGeometry x="-500" y="390" width="100" height="40" as="geometry" />
        </mxCell>
        <mxCell id="fAwy22idsRdfTl3k40VF-18" style="edgeStyle=orthogonalEdgeStyle;rounded=0;orthogonalLoop=1;jettySize=auto;html=1;entryX=0;entryY=0.5;entryDx=0;entryDy=0;" edge="1" parent="1" source="fAwy22idsRdfTl3k40VF-14" target="fAwy22idsRdfTl3k40VF-2">
          <mxGeometry relative="1" as="geometry" />
        </mxCell>
        <mxCell id="fAwy22idsRdfTl3k40VF-14" value="CPF" style="ellipse;whiteSpace=wrap;html=1;align=center;" vertex="1" parent="1">
          <mxGeometry x="-820" y="20" width="100" height="40" as="geometry" />
        </mxCell>
        <mxCell id="fAwy22idsRdfTl3k40VF-20" style="edgeStyle=orthogonalEdgeStyle;rounded=0;orthogonalLoop=1;jettySize=auto;html=1;exitX=0.5;exitY=1;exitDx=0;exitDy=0;entryX=0.25;entryY=0;entryDx=0;entryDy=0;" edge="1" parent="1" source="fAwy22idsRdfTl3k40VF-15" target="fAwy22idsRdfTl3k40VF-2">
          <mxGeometry relative="1" as="geometry" />
        </mxCell>
        <mxCell id="fAwy22idsRdfTl3k40VF-15" value="Nome" style="ellipse;whiteSpace=wrap;html=1;align=center;" vertex="1" parent="1">
          <mxGeometry x="-700" y="20" width="100" height="40" as="geometry" />
        </mxCell>
        <mxCell id="fAwy22idsRdfTl3k40VF-21" style="edgeStyle=orthogonalEdgeStyle;rounded=0;orthogonalLoop=1;jettySize=auto;html=1;exitX=0.5;exitY=1;exitDx=0;exitDy=0;entryX=1;entryY=0.5;entryDx=0;entryDy=0;" edge="1" parent="1" source="fAwy22idsRdfTl3k40VF-16" target="fAwy22idsRdfTl3k40VF-2">
          <mxGeometry relative="1" as="geometry" />
        </mxCell>
        <mxCell id="fAwy22idsRdfTl3k40VF-16" value="Licença" style="ellipse;whiteSpace=wrap;html=1;align=center;" vertex="1" parent="1">
          <mxGeometry x="-590" y="20" width="100" height="40" as="geometry" />
        </mxCell>
        <mxCell id="fAwy22idsRdfTl3k40VF-19" style="edgeStyle=orthogonalEdgeStyle;rounded=0;orthogonalLoop=1;jettySize=auto;html=1;exitX=1;exitY=0.5;exitDx=0;exitDy=0;entryX=0.25;entryY=1;entryDx=0;entryDy=0;" edge="1" parent="1" source="fAwy22idsRdfTl3k40VF-17" target="fAwy22idsRdfTl3k40VF-2">
          <mxGeometry relative="1" as="geometry" />
        </mxCell>
        <mxCell id="fAwy22idsRdfTl3k40VF-17" value="Endereço" style="ellipse;whiteSpace=wrap;html=1;align=center;" vertex="1" parent="1">
          <mxGeometry x="-820" y="180" width="100" height="40" as="geometry" />
        </mxCell>
        <mxCell id="fAwy22idsRdfTl3k40VF-25" style="edgeStyle=orthogonalEdgeStyle;rounded=0;orthogonalLoop=1;jettySize=auto;html=1;exitX=0.5;exitY=1;exitDx=0;exitDy=0;" edge="1" parent="1" source="fAwy22idsRdfTl3k40VF-22" target="fAwy22idsRdfTl3k40VF-4">
          <mxGeometry relative="1" as="geometry" />
        </mxCell>
        <mxCell id="fAwy22idsRdfTl3k40VF-22" value="BNome" style="ellipse;whiteSpace=wrap;html=1;align=center;" vertex="1" parent="1">
          <mxGeometry x="-440" y="10" width="100" height="40" as="geometry" />
        </mxCell>
        <mxCell id="fAwy22idsRdfTl3k40VF-24" style="edgeStyle=orthogonalEdgeStyle;rounded=0;orthogonalLoop=1;jettySize=auto;html=1;exitX=0.5;exitY=1;exitDx=0;exitDy=0;entryX=1;entryY=0.5;entryDx=0;entryDy=0;" edge="1" parent="1" source="fAwy22idsRdfTl3k40VF-23" target="fAwy22idsRdfTl3k40VF-4">
          <mxGeometry relative="1" as="geometry" />
        </mxCell>
        <mxCell id="fAwy22idsRdfTl3k40VF-23" value="BEndereço" style="ellipse;whiteSpace=wrap;html=1;align=center;" vertex="1" parent="1">
          <mxGeometry x="-380" y="60" width="100" height="40" as="geometry" />
        </mxCell>
        <mxCell id="fAwy22idsRdfTl3k40VF-26" style="edgeStyle=orthogonalEdgeStyle;rounded=0;orthogonalLoop=1;jettySize=auto;html=1;exitX=0.5;exitY=1;exitDx=0;exitDy=0;" edge="1" parent="1" source="fAwy22idsRdfTl3k40VF-27" target="fAwy22idsRdfTl3k40VF-5">
          <mxGeometry relative="1" as="geometry">
            <mxPoint x="-200" y="80" as="targetPoint" />
          </mxGeometry>
        </mxCell>
        <mxCell id="fAwy22idsRdfTl3k40VF-27" value="CNome" style="ellipse;whiteSpace=wrap;html=1;align=center;" vertex="1" parent="1">
          <mxGeometry x="-190" y="10" width="100" height="40" as="geometry" />
        </mxCell>
        <mxCell id="fAwy22idsRdfTl3k40VF-30" style="edgeStyle=orthogonalEdgeStyle;rounded=0;orthogonalLoop=1;jettySize=auto;html=1;exitX=0.5;exitY=1;exitDx=0;exitDy=0;entryX=1;entryY=0;entryDx=0;entryDy=0;" edge="1" parent="1" source="fAwy22idsRdfTl3k40VF-29" target="fAwy22idsRdfTl3k40VF-5">
          <mxGeometry relative="1" as="geometry" />
        </mxCell>
        <mxCell id="fAwy22idsRdfTl3k40VF-29" value="CEndereço" style="ellipse;whiteSpace=wrap;html=1;align=center;" vertex="1" parent="1">
          <mxGeometry x="-130" y="60" width="100" height="40" as="geometry" />
        </mxCell>
      </root>
    </mxGraphModel>
  </diagram>
</mxfile>
